<?xml version="1.0" encoding="utf-8"?>
<!-- Generator: Adobe Illustrator 22.1.0, SVG Export Plug-In . SVG Version: 6.00 Build 0)  -->
<svg version="1.1" id="Layer_1" xmlns="http://www.w3.org/2000/svg" xmlns:xlink="http://www.w3.org/1999/xlink" x="0px" y="0px"
	 viewBox="0 0 364.3 113.1" style="enable-background:new 0 0 364.3 113.1;" xml:space="preserve">
<style type="text/css">
	.st0{fill:#FFFFFF;}
</style>
<g>
	<path class="st0" d="M6.5,92.4c-3.9-1.2-5.4-4.7-4-8.5l23-65.4c1.4-3.8,4.6-5.5,8.3-4.4c3.9,1.2,5.4,4.7,4,8.5L14.8,88
		C13.4,91.8,10.2,93.5,6.5,92.4z"/>
	<path class="st0" d="M37.5,92.4c-3.9-1.2-5.4-4.7-4-8.5l23-65.4c1.4-3.8,4.6-5.5,8.3-4.4c3.9,1.2,5.4,4.7,4,8.5L45.8,88
		C44.4,91.8,41.2,93.5,37.5,92.4z"/>
	<path class="st0" d="M73.6,22.6c-1.4-3.8,0.1-7.3,4-8.5c3.7-1.2,6.9,0.5,8.3,4.4l23,65.4c1.4,3.8-0.1,7.3-4,8.5
		c-3.7,1.2-6.9-0.5-8.3-4.4L73.6,22.6z"/>
	<path class="st0" d="M123.2,59.3c-4.5,0-6.5-2.1-6.5-6.2v-6.3c0-4.2,2-6.3,6.5-6.3h5.6c4.6,0,6.5,2.1,6.5,6.3v6.3
		c0,4-1.9,6.2-6.5,6.2H123.2z M123.2,91c-4.5,0-6.5-2.1-6.5-6.2v-6.4c0-4,2-6.2,6.5-6.2h5.6c4.6,0,6.5,2.1,6.5,6.2v6.4
		c0,4-1.9,6.2-6.5,6.2H123.2z"/>
	<path class="st0" d="M162.2,71.5c0,5.7,2.9,8.6,8.7,8.6c5.7,0,8.3-2.2,8.3-6.9V71c0-1.7,1.1-2.8,2.7-2.8h10.7
		c1.8,0,2.9,1.2,2.9,2.9v2.1c0,12.1-9.2,18.5-24.7,18.5c-16.1,0-26-8-26-22V57c0-13.9,9.9-22,26-22c15.5,0,24.7,6.4,24.7,18.5v1.8
		c0,1.7-1.1,2.9-2.9,2.9h-10.7c-1.6,0-2.7-1.1-2.7-2.8v-1.8c0-4.8-2.6-7-8.3-7c-5.9,0-8.7,2.9-8.7,8.7V71.5z"/>
	<path class="st0" d="M268.3,105h-24.7c-24.8,0-38.6-11.5-38.6-33.3V47.5c0-22,15.8-33.8,42.7-33.8c27.1,0,42.2,11.6,42.2,32.8v21.5
		c0,9.6-5.7,16.2-17.7,16.2c-7,0-11.8-2.6-14.4-6.6c-2.9,4.4-7.7,6.8-14,6.8c-10.9,0-19.5-6.7-19.5-18.8V54.1
		c0-12,8.7-18.7,19.3-18.7c5.7,0,10.2,2,13,5.7c0.4-3.5,2.8-5.6,6.3-5.6h0.5c3.7,0,6.4,2.6,6.4,6.4v26.1c0,3.8,1.6,5.3,4.7,5.3
		c3.3,0,4.8-1.5,4.8-5.3V46.4c0-14.9-9.6-23.8-31.6-23.8c-21.9,0-32,9.2-32,24.9v24.3c0,15.5,8.2,24.2,28,24.2h24.8
		c2.3,0,3.8,1.5,3.8,3.8v1.6C272.2,103.6,270.7,105,268.3,105z M253.9,66.8v-14c0-4.4-2.2-6.7-6.8-6.7c-4.7,0-6.7,2.3-6.7,6.7v14
		c0,4.3,2,6.5,6.7,6.5C251.7,73.3,253.9,71.1,253.9,66.8z"/>
	<path class="st0" d="M325.9,90.5h-25.8c-1.6,0-2.8-1.1-2.8-2.7v-6.4c0-1.5,1.2-2.6,2.8-2.6h4.3V27.6h-4.3c-1.6,0-2.8-1.1-2.8-2.6
		v-6.4c0-1.6,1.2-2.7,2.8-2.7h16.3c3.4,0,5.1,1.5,5.1,5v19.4c3.1-3.5,7.4-5.3,13-5.3c12.3,0,20.4,7.7,20.4,21.4v22.5h4.4
		c1.6,0,2.8,1.1,2.8,2.6v6.4c0,1.6-1.2,2.7-2.8,2.7h-16.5c-3.3,0-5-1.5-5-5V56.3c0-5.6-2.8-8.8-8.1-8.8c-5.4,0-8.2,3.1-8.2,8.8v22.6
		h4.4c1.6,0,2.8,1.1,2.8,2.6v6.4C328.7,89.4,327.5,90.5,325.9,90.5z"/>
</g>
</svg>
